<?xml version="1.0" standalone="no"?>
<!DOCTYPE svg PUBLIC "-//W3C//DTD SVG 20010904//EN"
 "http://www.w3.org/TR/2001/REC-SVG-20010904/DTD/svg10.dtd">
<svg version="1.0" xmlns="http://www.w3.org/2000/svg"
 width="640.000000pt" height="640.000000pt" viewBox="0 0 640.000000 640.000000"
 preserveAspectRatio="xMidYMid meet">
<metadata>
Created by potrace 1.11, written by Peter Selinger 2001-2013
</metadata>
<g transform="translate(0.000000,640.000000) scale(0.100000,-0.100000)"
fill="#000000" stroke="none">
<path d="M1538 5282 c-13 -2 -15 -26 -14 -150 l1 -147 280 -1 c154 0 285 3
290 7 11 8 13 275 2 285 -6 7 -528 12 -559 6z"/>
<path d="M1920 4960 c-9 -6 -10 -10 -3 -10 6 0 15 5 18 10 8 12 4 12 -15 0z"/>
<path d="M1157 4870 c-10 -4 -13 -241 -12 -1125 l0 -1119 738 -1 c405 0 737 3
737 6 0 3 -35 35 -77 72 -43 36 -87 74 -98 84 -11 10 -59 51 -107 91 l-87 72
-365 0 c-201 0 -366 3 -367 8 -7 50 -4 130 5 125 8 -5 8 -3 0 8 -7 9 -10 111
-9 314 1 165 3 301 5 303 7 6 5 28 -3 40 -7 9 -4 17 9 27 13 10 14 13 3 10
-13 -5 -15 9 -14 112 0 65 4 124 9 132 6 9 5 12 0 8 -6 -3 -10 87 -9 240 0
227 1 246 18 249 9 1 17 -2 17 -7 0 -6 5 -7 12 -3 18 11 67 10 60 -1 -3 -5 1
-5 9 2 12 10 20 9 39 -4 13 -9 20 -11 16 -5 -5 8 5 12 31 13 21 1 43 0 48 -1
6 -2 78 -3 162 -3 103 -1 150 -4 145 -12 -4 -7 -1 -7 9 0 8 7 72 10 164 9 83
-1 262 -3 398 -5 136 -1 250 -6 253 -11 3 -5 11 -5 17 0 15 11 158 8 177 -3 8
-5 11 -4 7 2 -7 11 72 10 163 -2 45 -6 144 -35 190 -56 55 -25 106 -53 121
-65 8 -8 19 -14 23 -14 8 0 80 -64 110 -99 12 -13 26 -29 31 -35 55 -58 128
-200 156 -303 79 -288 -31 -596 -290 -808 l-45 -37 47 5 c26 2 50 0 53 -5 3
-4 10 -5 17 -1 16 10 337 11 344 0 2 -4 11 -3 19 4 10 8 14 8 14 0 0 -17 34
21 80 88 69 100 108 199 146 366 8 34 14 78 16 117 1 24 5 35 12 31 8 -5 8 -3
0 8 -12 16 -12 29 -1 47 5 6 4 12 0 12 -5 0 -9 24 -9 53 -1 150 -27 272 -88
402 -20 42 -36 81 -36 86 0 5 -4 9 -8 9 -5 0 -15 12 -23 28 -41 80 -194 243
-294 311 -27 19 -52 37 -55 41 -28 31 -410 194 -410 174 0 -2 -10 1 -22 7 -18
10 -279 13 -1106 13 -595 1 -1088 -1 -1095 -4z"/>
<path d="M3659 4871 c-5 -1 9 -17 33 -34 24 -17 45 -34 48 -37 3 -3 21 -17 40
-30 19 -14 42 -31 50 -38 8 -8 75 -60 149 -115 128 -97 137 -102 179 -99 32 2
42 -1 36 -9 -5 -9 -3 -9 7 -3 8 5 150 9 316 9 l303 0 1 -40 c0 -22 1 -121 2
-220 l2 -180 181 -1 182 -1 -1 399 c0 219 -3 398 -6 399 -18 3 -1513 3 -1522
0z"/>
<path d="M4273 4485 c0 -8 4 -12 9 -9 5 3 6 10 3 15 -9 13 -12 11 -12 -6z"/>
<path d="M4573 4485 c0 -8 4 -12 9 -9 5 3 6 10 3 15 -9 13 -12 11 -12 -6z"/>
<path d="M2292 4382 c-85 -153 -135 -286 -167 -447 -30 -149 -38 -345 -21
-460 17 -104 103 -303 185 -423 54 -80 181 -207 256 -257 33 -22 62 -43 65
-46 3 -3 19 -11 37 -18 22 -9 30 -18 26 -29 -4 -14 -3 -14 5 -3 6 8 15 10 23
5 8 -5 19 -9 24 -11 17 -3 80 -28 85 -33 3 -3 19 -6 35 -8 17 -1 37 -5 45 -9
27 -10 83 -15 193 -16 66 -1 107 -5 107 -12 0 -7 3 -7 8 0 10 14 145 15 154 1
5 -7 8 -7 8 -1 0 14 150 15 150 1 0 -7 3 -8 8 -1 10 14 145 15 154 1 5 -7 8
-7 8 -1 0 6 32 10 75 11 41 0 75 -3 75 -8 0 -5 6 -6 13 -1 17 11 77 10 77 -2
0 -6 3 -5 8 1 8 13 70 13 91 0 9 -6 12 -5 8 1 -9 14 125 12 135 -2 5 -6 8 -6
8 2 0 13 67 13 89 -1 9 -6 12 -5 8 1 -9 14 125 12 135 -2 5 -6 8 -6 8 2 0 13
67 13 89 -1 9 -6 12 -5 8 1 -9 14 125 12 135 -2 5 -6 8 -6 8 2 0 13 67 13 89
-1 9 -6 12 -5 8 1 -9 14 125 12 135 -2 5 -6 8 -6 8 2 0 13 67 13 89 -1 9 -6
12 -5 8 1 -7 11 137 12 149 1 4 -4 14 -3 24 2 10 5 20 7 22 4 3 -3 6 169 6
381 l-1 385 -31 1 c-174 4 -313 5 -321 2 -6 -2 -10 -74 -9 -193 l1 -190 -906
1 -906 1 -80 41 c-44 23 -81 45 -83 49 -2 4 -10 8 -18 8 -8 0 -14 4 -14 9 0 5
-8 12 -17 15 -41 14 -233 217 -233 247 0 5 -11 26 -24 47 -12 20 -24 40 -25
44 -3 13 -12 42 -24 72 -6 17 -12 37 -13 45 -13 78 -15 102 -16 139 0 35 8
112 18 167 1 6 2 16 3 23 0 7 5 10 11 7 6 -3 7 1 4 10 -18 46 126 308 234 426
l52 57 -239 0 -238 1 -21 -37z"/>
<path d="M815 2421 c-22 -10 -68 -47 -102 -82 -48 -50 -78 -70 -130 -91 -136
-55 -353 -195 -353 -228 0 -29 27 -31 58 -5 16 14 32 21 36 18 4 -4 5 -1 2 7
-4 10 15 30 55 58 63 45 217 127 225 119 2 -2 -5 -16 -17 -30 -84 -108 -234
-430 -254 -544 -7 -43 -11 -46 -65 -45 -30 0 -132 14 -157 21 -32 9 -53 -1
-53 -25 0 -15 48 -35 85 -34 17 0 65 0 107 -1 l77 0 11 -34 c14 -42 33 -58 59
-50 19 6 19 31 1 45 -4 3 -10 14 -14 26 -6 18 0 22 61 33 70 14 117 29 190 62
24 10 47 19 53 19 5 0 10 4 10 9 0 5 10 13 23 16 12 4 36 18 54 31 17 13 34
24 37 24 13 0 153 134 186 178 14 19 30 39 35 45 16 17 51 96 63 139 23 83
-23 160 -116 198 -37 14 -166 19 -222 7 l-35 -7 27 23 c67 56 110 78 125 64 9
-10 43 12 43 27 0 30 -48 33 -105 7z m159 -175 c43 -22 76 -68 76 -108 0 -46
-38 -130 -90 -200 -123 -163 -328 -290 -528 -326 l-54 -10 5 47 c5 43 14 86
17 86 1 0 3 7 5 15 4 22 66 170 87 208 45 80 63 111 97 162 35 54 42 63 78
107 10 12 33 24 51 27 19 2 36 7 39 9 2 3 44 4 91 3 62 -1 98 -7 126 -20z"/>
<path d="M3533 2326 c-120 -56 -300 -282 -383 -481 -69 -168 -59 -263 35 -309
39 -20 115 -27 150 -15 11 4 40 13 65 20 46 13 416 193 503 243 40 24 46 25
41 9 -4 -10 -10 -22 -14 -28 -11 -18 -11 -69 1 -92 16 -29 47 -29 119 -2 30
11 71 26 92 34 20 7 67 27 105 43 37 17 92 40 122 52 l54 21 -8 -33 c-19 -89
-6 -138 37 -138 23 0 233 92 291 128 38 23 39 23 32 3 -11 -37 12 -86 53 -108
20 -12 48 -22 62 -24 71 -7 248 57 357 130 34 22 65 41 68 41 3 0 11 5 18 10
40 34 103 80 109 80 9 0 -33 -74 -44 -78 -4 -2 -8 -8 -8 -13 0 -6 -18 -37 -41
-70 -62 -91 -32 -127 37 -44 l37 45 45 -45 c25 -25 56 -48 68 -51 14 -4 21
-11 17 -18 -5 -8 -3 -8 8 0 8 6 29 11 47 12 31 2 142 53 285 131 57 31 83 39
73 22 -9 -13 26 -46 53 -49 36 -6 71 -20 71 -30 0 -20 -54 -62 -86 -68 -32 -6
-73 11 -59 24 3 3 -2 14 -11 24 -21 22 -44 8 -44 -26 0 -36 39 -64 85 -61 47
2 63 8 195 75 55 27 104 49 108 47 4 -1 8 8 10 21 2 12 -1 22 -6 22 -5 0 -44
-18 -86 -40 -76 -40 -76 -40 -76 -16 0 24 -37 49 -85 58 -20 3 -29 32 -10 34
25 2 45 18 45 36 0 18 -5 20 -44 16 -24 -3 -82 -25 -127 -49 -167 -86 -205
-103 -259 -114 -61 -13 -97 -7 -135 23 -28 22 -20 29 37 28 20 -1 34 2 31 7
-2 4 4 7 14 7 29 1 97 53 108 84 8 23 6 30 -10 42 -10 8 -30 14 -43 14 -27 0
-120 -41 -164 -71 -14 -11 -29 -19 -32 -19 -6 0 26 62 36 70 3 3 10 18 13 33
7 27 25 47 162 178 76 74 100 113 82 135 -22 27 -79 10 -117 -36 -19 -22 -95
-140 -112 -174 -16 -31 -107 -108 -205 -173 -231 -152 -428 -199 -478 -113
-16 27 -16 32 -2 53 27 42 64 54 132 44 25 -3 34 0 38 14 11 34 -4 42 -64 36
-39 -4 -86 -21 -156 -56 -244 -121 -324 -149 -326 -113 -2 28 2 45 22 86 44
91 14 92 -171 6 -139 -65 -223 -95 -288 -104 -48 -6 -46 -13 -27 79 7 32 42
95 54 95 4 0 23 15 43 33 20 17 46 41 59 53 36 31 117 122 137 152 9 15 23 34
32 42 39 39 51 89 26 109 -21 17 -73 -7 -116 -55 -64 -70 -230 -306 -230 -326
0 -22 -355 -210 -511 -272 -68 -26 -174 -53 -196 -50 -7 1 -27 2 -44 3 -20 1
-41 12 -61 31 -28 29 -30 34 -25 93 7 77 8 82 49 174 10 24 23 53 28 65 10 24
31 59 40 68 3 3 22 30 42 60 36 53 121 147 166 182 53 42 123 64 172 53 24 -5
31 -13 36 -42 17 -91 -74 -301 -171 -395 -32 -31 -36 -39 -26 -52 10 -12 18
-13 35 -4 11 6 25 17 29 25 5 7 13 10 19 7 7 -4 8 -2 4 4 -4 6 5 30 20 53 39
62 114 216 114 234 0 8 4 15 8 15 9 0 15 36 16 108 1 47 -2 57 -27 78 -38 32
-104 32 -174 0z m746 -138 c-29 -55 -196 -248 -214 -248 -17 0 100 158 169
227 46 47 63 55 45 21z m1391 -13 c0 -2 -23 -28 -51 -57 -52 -54 -49 -41 6 25
27 33 45 46 45 32z m-49 -329 c-24 -28 -141 -71 -141 -52 0 3 24 16 53 30 85
39 106 44 88 22z"/>
<path d="M4624 2199 c-29 -8 -84 -53 -84 -68 0 -4 6 -15 13 -25 12 -16 14 -16
35 4 12 11 22 25 22 29 0 18 75 38 132 36 58 -2 83 9 57 26 -18 11 -134 10
-175 -2z"/>
<path d="M1685 1896 c-93 -56 -377 -196 -372 -184 8 25 -13 46 -63 63 -57 19
-63 32 -20 46 43 15 42 49 -2 49 -37 0 -215 -79 -223 -99 -9 -23 8 -31 35 -16
29 17 110 55 116 55 2 0 4 -6 4 -14 0 -14 25 -39 44 -42 72 -15 86 -25 70 -52
-16 -26 -79 -54 -107 -47 -13 4 -29 17 -36 31 -13 29 -37 31 -46 4 -7 -23 8
-56 34 -69 41 -22 103 -2 317 105 118 59 217 105 220 102 3 -3 -2 -13 -11 -22
-9 -9 -14 -16 -10 -16 3 0 -1 -10 -9 -23 -25 -38 -28 -95 -5 -116 21 -20 60
-18 88 5 9 7 36 29 59 48 24 20 46 36 49 36 6 0 -174 -348 -232 -450 -49 -85
-52 -92 -31 -109 16 -13 33 7 77 89 13 25 26 47 29 50 3 3 14 22 25 43 11 20
30 48 42 62 13 13 23 27 23 30 0 23 194 214 260 256 56 36 214 119 226 119 4
0 -4 -10 -18 -22 -60 -55 -89 -126 -62 -152 30 -31 55 -29 125 7 72 37 76 36
71 -14 -1 -7 8 -8 66 -13 23 -1 42 1 42 6 0 4 3 7 8 6 8 -1 28 6 117 47 115
52 125 57 125 65 0 21 -36 17 -88 -9 -94 -48 -232 -79 -232 -53 1 18 19 34 30
27 9 -5 11 -4 6 4 -4 6 -3 18 3 25 8 10 7 17 -5 27 -17 14 -17 14 -79 -35 -37
-30 -133 -68 -147 -60 -13 9 23 67 69 111 40 39 58 46 128 56 11 2 29 8 40 14
15 9 17 14 7 26 -28 33 -151 -1 -355 -98 -80 -37 -169 -105 -264 -201 l-82
-83 41 77 c23 42 61 108 85 147 44 71 50 89 33 100 -11 7 -66 -20 -77 -38 -10
-17 -121 -92 -150 -101 -12 -4 -24 -3 -26 2 -9 13 45 109 81 146 35 36 41 60
16 70 -19 7 -12 10 -59 -18z"/>
<path d="M1316 1638 c3 -5 10 -6 15 -3 13 9 11 12 -6 12 -8 0 -12 -4 -9 -9z"/>
<path d="M2276 1383 c-6 -14 -5 -15 5 -6 7 7 10 15 7 18 -3 3 -9 -2 -12 -12z"/>
<path d="M2771 1384 c0 -11 3 -14 6 -6 3 7 2 16 -1 19 -3 4 -6 -2 -5 -13z"/>
<path d="M2865 1380 c-26 -28 -15 -31 12 -3 12 13 19 23 14 23 -4 0 -16 -9
-26 -20z"/>
<path d="M3376 1383 c-6 -14 -5 -15 5 -6 7 7 10 15 7 18 -3 3 -9 -2 -12 -12z"/>
<path d="M3540 1396 c0 -2 8 -10 18 -17 15 -13 16 -12 3 4 -13 16 -21 21 -21
13z"/>
<path d="M2357 1369 c4 -13 8 -18 11 -10 2 7 -1 18 -6 23 -8 8 -9 4 -5 -13z"/>
<path d="M2573 1378 c-15 -20 -25 -38 -20 -38 3 0 12 11 21 25 17 26 16 35 -1
13z"/>
<path d="M2683 1367 c12 -13 24 -22 26 -20 6 4 -30 43 -40 43 -5 0 2 -10 14
-23z"/>
<path d="M2960 1379 c8 -8 21 -21 29 -29 12 -12 11 -10 0 9 -9 14 -22 27 -30
29 -11 3 -11 2 1 -9z"/>
<path d="M3049 1373 c-13 -16 -12 -17 4 -4 9 7 17 15 17 17 0 8 -8 3 -21 -13z"/>
<path d="M3206 1363 c-6 -14 -5 -15 5 -6 7 7 10 15 7 18 -3 3 -9 -2 -12 -12z"/>
<path d="M3390 1366 c0 -2 7 -9 15 -16 13 -11 14 -10 9 4 -5 14 -24 23 -24 12z"/>
<path d="M3820 1355 c-7 -9 -11 -17 -9 -20 3 -2 10 5 17 15 14 24 10 26 -8 5z"/>
<path d="M3279 1333 c-13 -16 -12 -17 4 -4 9 7 17 15 17 17 0 8 -8 3 -21 -13z"/>
<path d="M3782 1328 c7 -15 15 -23 17 -17 2 6 -4 18 -13 27 -15 15 -15 15 -4
-10z"/>
<path d="M2402 1320 c0 -14 2 -19 5 -12 2 6 2 18 0 25 -3 6 -5 1 -5 -13z"/>
<path d="M2842 1320 c0 -14 2 -19 5 -12 2 6 2 18 0 25 -3 6 -5 1 -5 -13z"/>
<path d="M3211 1333 c-1 -6 -4 -20 -7 -30 -5 -17 -5 -17 6 0 6 10 9 23 6 30
-3 9 -5 9 -5 0z"/>
<path d="M3603 1319 c-2 -23 3 -25 10 -4 4 8 3 16 -1 19 -4 3 -9 -4 -9 -15z"/>
<path d="M2277 1311 c-4 -17 -3 -21 5 -13 5 5 8 16 6 23 -3 8 -7 3 -11 -10z"/>
<path d="M2551 1314 c0 -11 3 -14 6 -6 3 7 2 16 -1 19 -3 4 -6 -2 -5 -13z"/>
<path d="M3240 1319 c8 -8 21 -21 29 -29 12 -12 11 -10 0 9 -9 14 -22 27 -30
29 -11 3 -11 2 1 -9z"/>
<path d="M3414 1310 c0 -13 4 -16 10 -10 7 7 7 13 0 20 -6 6 -10 3 -10 -10z"/>
<path d="M3481 1314 c0 -11 3 -14 6 -6 3 7 2 16 -1 19 -3 4 -6 -2 -5 -13z"/>
<path d="M2511 1304 c0 -11 3 -14 6 -6 3 7 2 16 -1 19 -3 4 -6 -2 -5 -13z"/>
<path d="M3711 1304 c0 -11 3 -14 6 -6 3 7 2 16 -1 19 -3 4 -6 -2 -5 -13z"/>
<path d="M2687 1277 l-17 -32 20 24 c17 20 26 41 18 41 -2 0 -11 -15 -21 -33z"/>
<path d="M3332 1284 c-12 -27 -11 -28 3 -9 9 11 19 19 23 18 4 -1 9 1 12 4 3
4 0 3 -7 0 -6 -4 -13 -2 -15 4 -2 6 -9 -2 -16 -17z"/>
<path d="M3040 1280 c6 -11 13 -20 16 -20 2 0 0 9 -6 20 -6 11 -13 20 -16 20
-2 0 0 -9 6 -20z"/>
<path d="M2566 1277 c3 -10 9 -15 12 -12 3 3 0 11 -7 18 -10 9 -11 8 -5 -6z"/>
<path d="M2850 1281 c0 -10 29 -36 34 -30 1 2 -6 12 -16 22 -10 9 -18 13 -18
8z"/>
<path d="M3430 1281 c0 -6 4 -13 10 -16 6 -3 7 1 4 9 -7 18 -14 21 -14 7z"/>
<path d="M3476 1273 c-6 -14 -5 -15 5 -6 7 7 10 15 7 18 -3 3 -9 -2 -12 -12z"/>
<path d="M2961 1260 c-13 -11 -19 -20 -14 -20 6 0 18 9 28 20 23 25 17 25 -14
0z"/>
<path d="M3149 1253 c-13 -16 -12 -17 4 -4 9 7 17 15 17 17 0 8 -8 3 -21 -13z"/>
</g>
</svg>
