<?xml version="1.0" standalone="no"?>
<!DOCTYPE svg PUBLIC "-//W3C//DTD SVG 20010904//EN"
 "http://www.w3.org/TR/2001/REC-SVG-20010904/DTD/svg10.dtd">
<svg version="1.0" xmlns="http://www.w3.org/2000/svg"
 width="221.000000pt" height="221.000000pt" viewBox="0 0 221.000000 221.000000"
 preserveAspectRatio="xMidYMid meet">
<metadata>
Created by potrace 1.11, written by Peter Selinger 2001-2013
</metadata>
<g transform="translate(0.000000,221.000000) scale(0.100000,-0.100000)"
fill="#000000" stroke="none">
<path d="M582 1648 l-28 -93 -175 -2 c-95 -1 -177 -2 -181 -2 -5 -1 -8 -244
-8 -541 l0 -540 915 0 915 0 1 28 c0 15 1 258 2 539 l2 513 -25 1 c-14 1 -32
1 -41 0 -19 -2 -27 21 -24 66 l2 30 -144 1 c-79 0 -143 -3 -144 -6 -1 -4 -2
-25 -3 -47 l-1 -40 -196 -2 -196 -1 -44 94 -44 94 -277 0 -277 0 -29 -92z
m499 -3 c1 -14 1 -36 1 -50 0 -14 0 -29 -1 -35 -1 -6 -66 -10 -174 -10 l-172
0 1 58 c1 31 2 58 3 60 0 1 78 2 171 2 l170 0 1 -25z m-712 -219 c17 -20 2
-48 -23 -44 -24 3 -34 37 -14 49 18 12 24 11 37 -5z m109 -14 c4 -28 -24 -40
-45 -19 -14 13 -14 19 -3 32 18 22 44 15 48 -13z m116 5 c12 -20 -7 -39 -34
-34 -20 3 -26 37 -8 48 17 11 29 7 42 -14z m807 -102 c0 -11 1 -175 1 -365 l0
-345 -541 -3 c-510 -2 -541 -1 -542 15 -1 25 -1 674 0 695 1 9 9 18 18 20 9 2
252 3 540 3 516 0 523 0 524 -20z m183 -1 c34 -34 10 -96 -38 -96 -35 0 -58
23 -58 58 0 48 62 72 96 38z m168 -1 c37 -33 13 -95 -37 -95 -30 0 -65 32 -65
58 0 21 37 54 62 54 12 0 30 -7 40 -17z m174 9 c48 -32 22 -115 -33 -106 -7 1
-17 2 -23 3 -5 0 -16 14 -24 29 -21 40 4 82 49 82 11 0 25 -4 31 -8z m-342
-181 c26 -29 17 -73 -18 -90 -34 -16 -54 -7 -73 29 -28 57 49 108 91 61z m168
2 c27 -24 23 -69 -7 -89 -21 -14 -30 -14 -55 -4 -33 13 -41 33 -28 70 16 43
57 53 90 23z m186 -8 c23 -29 19 -59 -11 -80 -30 -21 -44 -19 -72 9 -26 26
-25 46 3 79 22 25 57 21 80 -8z m-85 -213 c86 -82 79 -210 -16 -286 -35 -28
-46 -31 -106 -31 -77 0 -120 22 -162 83 -37 54 -34 144 5 201 31 44 87 77 141
83 42 5 104 -18 138 -50z"/>
<path d="M810 1173 c-14 -2 -32 -7 -40 -10 -8 -4 -17 -7 -20 -8 -33 -9 -80
-36 -80 -46 0 -7 7 -8 18 -4 52 22 50 28 47 -130 -2 -136 -1 -147 17 -156 16
-9 25 -6 46 12 66 57 136 144 157 194 37 90 -35 163 -145 148z m101 -44 c19
-13 29 -29 29 -45 0 -28 -23 -88 -42 -109 -7 -8 -26 -32 -43 -54 -31 -40 -82
-77 -92 -67 -3 3 -4 31 -3 63 2 32 2 95 2 140 -2 77 0 82 21 86 56 11 100 6
128 -14z"/>
<path d="M1083 1133 c-54 -50 -117 -187 -111 -244 4 -43 46 -74 101 -74 65 0
228 71 201 88 -5 3 -39 -8 -74 -25 -36 -16 -86 -32 -112 -35 -40 -4 -50 -2
-72 20 -21 21 -24 30 -16 56 5 17 7 31 5 31 -2 0 10 28 27 63 29 59 73 117 90
117 14 0 8 -22 -9 -36 -15 -10 -16 -15 -5 -26 11 -11 16 -9 32 12 28 37 31 59
10 70 -27 15 -33 13 -67 -17z"/>
<path d="M592 1108 c-7 -7 -12 -20 -12 -30 0 -19 -28 -38 -57 -38 -14 0 -19 7
-18 28 0 40 -27 35 -30 -6 -2 -18 -5 -35 -7 -37 -2 -3 -28 -8 -58 -12 -73 -11
-80 -34 -8 -30 48 2 53 0 50 -18 -6 -31 -22 -45 -52 -45 -16 0 -30 -7 -34 -15
-4 -11 2 -15 24 -15 22 0 29 -5 32 -22 4 -34 33 -30 31 4 -1 21 4 29 29 37 33
12 52 6 41 -12 -13 -21 -8 -62 7 -62 10 0 16 13 18 40 3 42 22 65 56 65 12 1
35 7 51 15 29 14 28 15 -27 9 l-57 -5 9 32 c12 39 11 39 46 43 16 2 32 4 37 5
4 0 7 6 7 11 0 6 -16 10 -35 10 -33 0 -34 1 -25 25 10 27 0 41 -18 23z m-43
-120 c-11 -39 -19 -47 -52 -54 -30 -5 -32 0 -16 44 10 28 22 36 66 41 8 1 9
-8 2 -31z"/>
<path d="M1653 910 c-43 -26 -63 -58 -68 -111 -11 -116 111 -196 212 -139 50
28 75 69 75 125 0 113 -124 183 -219 125z m123 -85 c18 -19 23 -31 19 -48 -10
-33 -30 -49 -60 -49 -53 0 -80 62 -44 101 26 28 54 26 85 -4z"/>
</g>
</svg>
